<?xml version="1.0" encoding="UTF-8"?>
<svg xmlns="http://www.w3.org/2000/svg" viewBox="0 0 480 480" width="480px" height="480px">
<g id="surface15291122">
<path style=" stroke:none;fill-rule:nonzero;fill:rgb(100%,100%,100%);fill-opacity:1;" d="M 340 290 C 334 232 264 192 180 201 C 131 206 86 227 61 257 C 45 276 38 298 40 320 C 45 373 104 410 178 410 C 185 410 192 410 200 409 C 249 404 294 383 319 353 C 335 334 342 312 340 290 Z M 340 290 "/>
<path style=" stroke:none;fill-rule:nonzero;fill:rgb(82.745099%,18.431373%,18.431373%);fill-opacity:1;" d="M 198 389 C 127 396 65 364 60 318 C 55 272 110 228 181 221 C 253 214 314 246 319 292 C 324 339 270 382 198 389 M 347 239 C 341 237 337 236 340 228 C 347 211 348 196 340 185 C 326 165 287 166 243 184 C 243 184 229 190 233 179 C 240 157 239 139 228 129 C 204 105 140 130 85 184 C 44 225 20 268 20 305 C 20 377 112 420 203 420 C 321 420 400 352 400 298 C 400 265 372 247 347 239 "/>
<path style=" stroke:none;fill-rule:nonzero;fill:rgb(14.901961%,19.607843%,21.960784%);fill-opacity:1;" d="M 209 304 C 206 309 200 312 195 310 C 190 308 189 302 191 297 C 194 292 200 289 204 292 C 210 293 211 298 209 304 M 176 328 C 169 338 153 343 141 338 C 129 333 126 321 133 312 C 140 302 155 298 167 302 C 180 306 184 318 176 328 M 205 252 C 170 243 131 260 116 290 C 101 321 115 355 151 366 C 187 378 230 360 245 327 C 260 295 241 261 205 252 "/>
<path style=" stroke:none;fill-rule:nonzero;fill:rgb(97.647059%,65.882355%,14.509805%);fill-opacity:1;" d="M 439 200 C 430.714844 200 424 206.714844 424 215 C 424 223.285156 430.714844 230 439 230 C 447.285156 230 454 223.285156 454 215 C 454 206.714844 447.285156 200 439 200 Z M 439 200 "/>
<path style=" stroke:none;fill-rule:nonzero;fill:rgb(97.647059%,65.882355%,14.509805%);fill-opacity:1;" d="M 453 220 C 451 226 445 230 439 230 C 431 230 424 223 424 215 C 424 213 424 211 425 209 C 428 200 430 190 430 180 C 430 130 390 90 340 90 C 336 90 331 90 327 91 C 327 91 327 91 326 91 L 325 91 C 317 91 310 84 310 76 C 310 68 317 61 325 61 C 330 60 335 60 340 60 C 406 60 460 114 460 180 C 460 194 458 207 453 220 Z M 400 180 C 400 147 373 120 340 120 C 338 120 336 120 333 120 C 333 120 333 120 332 120 C 325 121 319 127 319 135 C 319 143 326 150 334 150 L 335 150 C 336 150 338 150 339 150 C 356 150 369 163 369 180 C 369 183 368 187 367 190 C 366 192 366 193 366 195 C 366 203 373 210 381 210 C 387 210 392 206 395 201 L 395 200 C 395 199 395 199 396 198 C 399 192 400 186 400 180 Z M 400 180 "/>
</g>
</svg>
